<?xml version="1.0" standalone="no"?>
<!DOCTYPE svg PUBLIC "-//W3C//DTD SVG 20010904//EN"
 "http://www.w3.org/TR/2001/REC-SVG-20010904/DTD/svg10.dtd">
<svg version="1.0" xmlns="http://www.w3.org/2000/svg"
 width="324.000000pt" height="254.000000pt" viewBox="0 0 324.000000 254.000000"
 preserveAspectRatio="xMidYMid meet">

<g transform="translate(0.000000,254.000000) scale(0.100000,-0.100000)"
fill="#000000" stroke="none">
<path d="M1040 2528 c-297 -63 -567 -227 -749 -454 -314 -390 -374 -931 -151
-1374 156 -311 421 -538 768 -658 l107 -37 280 -3 280 -3 -466 468 c-257 257
-474 479 -483 493 -38 58 -9 152 57 183 43 21 68 21 110 3 18 -8 274 -257 597
-580 l565 -566 205 0 205 0 -838 838 -837 837 0 52 c0 44 5 58 31 87 36 42 85
58 132 45 24 -6 261 -238 957 -934 l925 -925 229 0 228 0 -688 696 c-379 383
-693 706 -697 718 -5 11 -6 41 -4 66 4 35 13 51 41 77 31 29 43 33 88 33 l52
0 287 -286 287 -287 9 49 c15 90 9 362 -10 451 -42 195 -123 374 -241 533 -15
19 -66 75 -114 123 -175 177 -401 300 -647 352 -81 17 -440 19 -515 3z"/>
</g>
</svg>
